<?xml version="1.0" encoding="utf-8" standalone="no"?>
<!DOCTYPE svg PUBLIC "-//W3C//DTD SVG 1.1//EN"
  "http://www.w3.org/Graphics/SVG/1.1/DTD/svg11.dtd">
<svg xmlns:xlink="http://www.w3.org/1999/xlink" width="838.54375pt" height="392.514375pt" viewBox="0 0 838.54375 392.514375" xmlns="http://www.w3.org/2000/svg" version="1.1">
 <metadata>
  <rdf:RDF xmlns:dc="http://purl.org/dc/elements/1.1/" xmlns:cc="http://creativecommons.org/ns#" xmlns:rdf="http://www.w3.org/1999/02/22-rdf-syntax-ns#">
   <cc:Work>
    <dc:type rdf:resource="http://purl.org/dc/dcmitype/StillImage"/>
    <dc:date>2023-12-14T12:07:04.385657</dc:date>
    <dc:format>image/svg+xml</dc:format>
    <dc:creator>
     <cc:Agent>
      <dc:title>Matplotlib v3.7.1, https://matplotlib.org/</dc:title>
     </cc:Agent>
    </dc:creator>
   </cc:Work>
  </rdf:RDF>
 </metadata>
 <defs>
  <style type="text/css">*{stroke-linejoin: round; stroke-linecap: butt}</style>
 </defs>
 <g id="figure_1">
  <g id="patch_1">
   <path d="M 0 392.514375 
L 838.54375 392.514375 
L 838.54375 0 
L 0 0 
z
" style="fill: #ffffff"/>
  </g>
  <g id="axes_1">
   <g id="patch_2">
    <path d="M 50.14375 354.958125 
L 831.34375 354.958125 
L 831.34375 22.318125 
L 50.14375 22.318125 
z
" style="fill: #ffffff"/>
   </g>
   <g id="matplotlib.axis_1">
    <g id="xtick_1">
     <g id="line2d_1">
      <path d="M 114.593843 354.958125 
L 114.593843 22.318125 
" clip-path="url(#p27410af6ae)" style="fill: none; stroke: #b0b0b0; stroke-width: 0.8; stroke-linecap: square"/>
     </g>
     <g id="line2d_2">
      <defs>
       <path id="mc0091831f4" d="M 0 0 
L 0 3.5 
" style="stroke: #000000; stroke-width: 0.8"/>
      </defs>
      <g>
       <use xlink:href="#mc0091831f4" x="114.593843" y="354.958125" style="stroke: #000000; stroke-width: 0.8"/>
      </g>
     </g>
     <g id="text_1">
      <!-- 3.5 -->
      <g transform="translate(106.642281 369.556562) scale(0.1 -0.1)">
       <defs>
        <path id="DejaVuSans-33" d="M 2597 2516 
Q 3050 2419 3304 2112 
Q 3559 1806 3559 1356 
Q 3559 666 3084 287 
Q 2609 -91 1734 -91 
Q 1441 -91 1130 -33 
Q 819 25 488 141 
L 488 750 
Q 750 597 1062 519 
Q 1375 441 1716 441 
Q 2309 441 2620 675 
Q 2931 909 2931 1356 
Q 2931 1769 2642 2001 
Q 2353 2234 1838 2234 
L 1294 2234 
L 1294 2753 
L 1863 2753 
Q 2328 2753 2575 2939 
Q 2822 3125 2822 3475 
Q 2822 3834 2567 4026 
Q 2313 4219 1838 4219 
Q 1578 4219 1281 4162 
Q 984 4106 628 3988 
L 628 4550 
Q 988 4650 1302 4700 
Q 1616 4750 1894 4750 
Q 2613 4750 3031 4423 
Q 3450 4097 3450 3541 
Q 3450 3153 3228 2886 
Q 3006 2619 2597 2516 
z
" transform="scale(0.015625)"/>
        <path id="DejaVuSans-2e" d="M 684 794 
L 1344 794 
L 1344 0 
L 684 0 
L 684 794 
z
" transform="scale(0.015625)"/>
        <path id="DejaVuSans-35" d="M 691 4666 
L 3169 4666 
L 3169 4134 
L 1269 4134 
L 1269 2991 
Q 1406 3038 1543 3061 
Q 1681 3084 1819 3084 
Q 2600 3084 3056 2656 
Q 3513 2228 3513 1497 
Q 3513 744 3044 326 
Q 2575 -91 1722 -91 
Q 1428 -91 1123 -41 
Q 819 9 494 109 
L 494 744 
Q 775 591 1075 516 
Q 1375 441 1709 441 
Q 2250 441 2565 725 
Q 2881 1009 2881 1497 
Q 2881 1984 2565 2268 
Q 2250 2553 1709 2553 
Q 1456 2553 1204 2497 
Q 953 2441 691 2322 
L 691 4666 
z
" transform="scale(0.015625)"/>
       </defs>
       <use xlink:href="#DejaVuSans-33"/>
       <use xlink:href="#DejaVuSans-2e" x="63.623047"/>
       <use xlink:href="#DejaVuSans-35" x="95.410156"/>
      </g>
     </g>
    </g>
    <g id="xtick_2">
     <g id="line2d_3">
      <path d="M 228.393542 354.958125 
L 228.393542 22.318125 
" clip-path="url(#p27410af6ae)" style="fill: none; stroke: #b0b0b0; stroke-width: 0.8; stroke-linecap: square"/>
     </g>
     <g id="line2d_4">
      <g>
       <use xlink:href="#mc0091831f4" x="228.393542" y="354.958125" style="stroke: #000000; stroke-width: 0.8"/>
      </g>
     </g>
     <g id="text_2">
      <!-- 4.0 -->
      <g transform="translate(220.441979 369.556562) scale(0.1 -0.1)">
       <defs>
        <path id="DejaVuSans-34" d="M 2419 4116 
L 825 1625 
L 2419 1625 
L 2419 4116 
z
M 2253 4666 
L 3047 4666 
L 3047 1625 
L 3713 1625 
L 3713 1100 
L 3047 1100 
L 3047 0 
L 2419 0 
L 2419 1100 
L 313 1100 
L 313 1709 
L 2253 4666 
z
" transform="scale(0.015625)"/>
        <path id="DejaVuSans-30" d="M 2034 4250 
Q 1547 4250 1301 3770 
Q 1056 3291 1056 2328 
Q 1056 1369 1301 889 
Q 1547 409 2034 409 
Q 2525 409 2770 889 
Q 3016 1369 3016 2328 
Q 3016 3291 2770 3770 
Q 2525 4250 2034 4250 
z
M 2034 4750 
Q 2819 4750 3233 4129 
Q 3647 3509 3647 2328 
Q 3647 1150 3233 529 
Q 2819 -91 2034 -91 
Q 1250 -91 836 529 
Q 422 1150 422 2328 
Q 422 3509 836 4129 
Q 1250 4750 2034 4750 
z
" transform="scale(0.015625)"/>
       </defs>
       <use xlink:href="#DejaVuSans-34"/>
       <use xlink:href="#DejaVuSans-2e" x="63.623047"/>
       <use xlink:href="#DejaVuSans-30" x="95.410156"/>
      </g>
     </g>
    </g>
    <g id="xtick_3">
     <g id="line2d_5">
      <path d="M 342.193241 354.958125 
L 342.193241 22.318125 
" clip-path="url(#p27410af6ae)" style="fill: none; stroke: #b0b0b0; stroke-width: 0.8; stroke-linecap: square"/>
     </g>
     <g id="line2d_6">
      <g>
       <use xlink:href="#mc0091831f4" x="342.193241" y="354.958125" style="stroke: #000000; stroke-width: 0.8"/>
      </g>
     </g>
     <g id="text_3">
      <!-- 4.5 -->
      <g transform="translate(334.241678 369.556562) scale(0.1 -0.1)">
       <use xlink:href="#DejaVuSans-34"/>
       <use xlink:href="#DejaVuSans-2e" x="63.623047"/>
       <use xlink:href="#DejaVuSans-35" x="95.410156"/>
      </g>
     </g>
    </g>
    <g id="xtick_4">
     <g id="line2d_7">
      <path d="M 455.992939 354.958125 
L 455.992939 22.318125 
" clip-path="url(#p27410af6ae)" style="fill: none; stroke: #b0b0b0; stroke-width: 0.8; stroke-linecap: square"/>
     </g>
     <g id="line2d_8">
      <g>
       <use xlink:href="#mc0091831f4" x="455.992939" y="354.958125" style="stroke: #000000; stroke-width: 0.8"/>
      </g>
     </g>
     <g id="text_4">
      <!-- 5.0 -->
      <g transform="translate(448.041377 369.556562) scale(0.1 -0.1)">
       <use xlink:href="#DejaVuSans-35"/>
       <use xlink:href="#DejaVuSans-2e" x="63.623047"/>
       <use xlink:href="#DejaVuSans-30" x="95.410156"/>
      </g>
     </g>
    </g>
    <g id="xtick_5">
     <g id="line2d_9">
      <path d="M 569.792638 354.958125 
L 569.792638 22.318125 
" clip-path="url(#p27410af6ae)" style="fill: none; stroke: #b0b0b0; stroke-width: 0.8; stroke-linecap: square"/>
     </g>
     <g id="line2d_10">
      <g>
       <use xlink:href="#mc0091831f4" x="569.792638" y="354.958125" style="stroke: #000000; stroke-width: 0.8"/>
      </g>
     </g>
     <g id="text_5">
      <!-- 5.5 -->
      <g transform="translate(561.841075 369.556562) scale(0.1 -0.1)">
       <use xlink:href="#DejaVuSans-35"/>
       <use xlink:href="#DejaVuSans-2e" x="63.623047"/>
       <use xlink:href="#DejaVuSans-35" x="95.410156"/>
      </g>
     </g>
    </g>
    <g id="xtick_6">
     <g id="line2d_11">
      <path d="M 683.592336 354.958125 
L 683.592336 22.318125 
" clip-path="url(#p27410af6ae)" style="fill: none; stroke: #b0b0b0; stroke-width: 0.8; stroke-linecap: square"/>
     </g>
     <g id="line2d_12">
      <g>
       <use xlink:href="#mc0091831f4" x="683.592336" y="354.958125" style="stroke: #000000; stroke-width: 0.8"/>
      </g>
     </g>
     <g id="text_6">
      <!-- 6.0 -->
      <g transform="translate(675.640774 369.556562) scale(0.1 -0.1)">
       <defs>
        <path id="DejaVuSans-36" d="M 2113 2584 
Q 1688 2584 1439 2293 
Q 1191 2003 1191 1497 
Q 1191 994 1439 701 
Q 1688 409 2113 409 
Q 2538 409 2786 701 
Q 3034 994 3034 1497 
Q 3034 2003 2786 2293 
Q 2538 2584 2113 2584 
z
M 3366 4563 
L 3366 3988 
Q 3128 4100 2886 4159 
Q 2644 4219 2406 4219 
Q 1781 4219 1451 3797 
Q 1122 3375 1075 2522 
Q 1259 2794 1537 2939 
Q 1816 3084 2150 3084 
Q 2853 3084 3261 2657 
Q 3669 2231 3669 1497 
Q 3669 778 3244 343 
Q 2819 -91 2113 -91 
Q 1303 -91 875 529 
Q 447 1150 447 2328 
Q 447 3434 972 4092 
Q 1497 4750 2381 4750 
Q 2619 4750 2861 4703 
Q 3103 4656 3366 4563 
z
" transform="scale(0.015625)"/>
       </defs>
       <use xlink:href="#DejaVuSans-36"/>
       <use xlink:href="#DejaVuSans-2e" x="63.623047"/>
       <use xlink:href="#DejaVuSans-30" x="95.410156"/>
      </g>
     </g>
    </g>
    <g id="xtick_7">
     <g id="line2d_13">
      <path d="M 797.392035 354.958125 
L 797.392035 22.318125 
" clip-path="url(#p27410af6ae)" style="fill: none; stroke: #b0b0b0; stroke-width: 0.8; stroke-linecap: square"/>
     </g>
     <g id="line2d_14">
      <g>
       <use xlink:href="#mc0091831f4" x="797.392035" y="354.958125" style="stroke: #000000; stroke-width: 0.8"/>
      </g>
     </g>
     <g id="text_7">
      <!-- 6.5 -->
      <g transform="translate(789.440473 369.556562) scale(0.1 -0.1)">
       <use xlink:href="#DejaVuSans-36"/>
       <use xlink:href="#DejaVuSans-2e" x="63.623047"/>
       <use xlink:href="#DejaVuSans-35" x="95.410156"/>
      </g>
     </g>
    </g>
    <g id="text_8">
     <!-- 1000/T -->
     <g transform="translate(423.280469 383.234687) scale(0.1 -0.1)">
      <defs>
       <path id="DejaVuSans-31" d="M 794 531 
L 1825 531 
L 1825 4091 
L 703 3866 
L 703 4441 
L 1819 4666 
L 2450 4666 
L 2450 531 
L 3481 531 
L 3481 0 
L 794 0 
L 794 531 
z
" transform="scale(0.015625)"/>
       <path id="DejaVuSans-2f" d="M 1625 4666 
L 2156 4666 
L 531 -594 
L 0 -594 
L 1625 4666 
z
" transform="scale(0.015625)"/>
       <path id="DejaVuSans-54" d="M -19 4666 
L 3928 4666 
L 3928 4134 
L 2272 4134 
L 2272 0 
L 1638 0 
L 1638 4134 
L -19 4134 
L -19 4666 
z
" transform="scale(0.015625)"/>
      </defs>
      <use xlink:href="#DejaVuSans-31"/>
      <use xlink:href="#DejaVuSans-30" x="63.623047"/>
      <use xlink:href="#DejaVuSans-30" x="127.246094"/>
      <use xlink:href="#DejaVuSans-30" x="190.869141"/>
      <use xlink:href="#DejaVuSans-2f" x="254.492188"/>
      <use xlink:href="#DejaVuSans-54" x="288.183594"/>
     </g>
    </g>
   </g>
   <g id="matplotlib.axis_2">
    <g id="ytick_1">
     <g id="line2d_15">
      <path d="M 50.14375 332.270578 
L 831.34375 332.270578 
" clip-path="url(#p27410af6ae)" style="fill: none; stroke: #b0b0b0; stroke-width: 0.8; stroke-linecap: square"/>
     </g>
     <g id="line2d_16">
      <defs>
       <path id="maa230c28ef" d="M 0 0 
L -3.5 0 
" style="stroke: #000000; stroke-width: 0.8"/>
      </defs>
      <g>
       <use xlink:href="#maa230c28ef" x="50.14375" y="332.270578" style="stroke: #000000; stroke-width: 0.8"/>
      </g>
     </g>
     <g id="text_9">
      <!-- 7.5 -->
      <g transform="translate(27.240625 336.069797) scale(0.1 -0.1)">
       <defs>
        <path id="DejaVuSans-37" d="M 525 4666 
L 3525 4666 
L 3525 4397 
L 1831 0 
L 1172 0 
L 2766 4134 
L 525 4134 
L 525 4666 
z
" transform="scale(0.015625)"/>
       </defs>
       <use xlink:href="#DejaVuSans-37"/>
       <use xlink:href="#DejaVuSans-2e" x="63.623047"/>
       <use xlink:href="#DejaVuSans-35" x="95.410156"/>
      </g>
     </g>
    </g>
    <g id="ytick_2">
     <g id="line2d_17">
      <path d="M 50.14375 291.868579 
L 831.34375 291.868579 
" clip-path="url(#p27410af6ae)" style="fill: none; stroke: #b0b0b0; stroke-width: 0.8; stroke-linecap: square"/>
     </g>
     <g id="line2d_18">
      <g>
       <use xlink:href="#maa230c28ef" x="50.14375" y="291.868579" style="stroke: #000000; stroke-width: 0.8"/>
      </g>
     </g>
     <g id="text_10">
      <!-- 8.0 -->
      <g transform="translate(27.240625 295.667798) scale(0.1 -0.1)">
       <defs>
        <path id="DejaVuSans-38" d="M 2034 2216 
Q 1584 2216 1326 1975 
Q 1069 1734 1069 1313 
Q 1069 891 1326 650 
Q 1584 409 2034 409 
Q 2484 409 2743 651 
Q 3003 894 3003 1313 
Q 3003 1734 2745 1975 
Q 2488 2216 2034 2216 
z
M 1403 2484 
Q 997 2584 770 2862 
Q 544 3141 544 3541 
Q 544 4100 942 4425 
Q 1341 4750 2034 4750 
Q 2731 4750 3128 4425 
Q 3525 4100 3525 3541 
Q 3525 3141 3298 2862 
Q 3072 2584 2669 2484 
Q 3125 2378 3379 2068 
Q 3634 1759 3634 1313 
Q 3634 634 3220 271 
Q 2806 -91 2034 -91 
Q 1263 -91 848 271 
Q 434 634 434 1313 
Q 434 1759 690 2068 
Q 947 2378 1403 2484 
z
M 1172 3481 
Q 1172 3119 1398 2916 
Q 1625 2713 2034 2713 
Q 2441 2713 2670 2916 
Q 2900 3119 2900 3481 
Q 2900 3844 2670 4047 
Q 2441 4250 2034 4250 
Q 1625 4250 1398 4047 
Q 1172 3844 1172 3481 
z
" transform="scale(0.015625)"/>
       </defs>
       <use xlink:href="#DejaVuSans-38"/>
       <use xlink:href="#DejaVuSans-2e" x="63.623047"/>
       <use xlink:href="#DejaVuSans-30" x="95.410156"/>
      </g>
     </g>
    </g>
    <g id="ytick_3">
     <g id="line2d_19">
      <path d="M 50.14375 251.466579 
L 831.34375 251.466579 
" clip-path="url(#p27410af6ae)" style="fill: none; stroke: #b0b0b0; stroke-width: 0.8; stroke-linecap: square"/>
     </g>
     <g id="line2d_20">
      <g>
       <use xlink:href="#maa230c28ef" x="50.14375" y="251.466579" style="stroke: #000000; stroke-width: 0.8"/>
      </g>
     </g>
     <g id="text_11">
      <!-- 8.5 -->
      <g transform="translate(27.240625 255.265798) scale(0.1 -0.1)">
       <use xlink:href="#DejaVuSans-38"/>
       <use xlink:href="#DejaVuSans-2e" x="63.623047"/>
       <use xlink:href="#DejaVuSans-35" x="95.410156"/>
      </g>
     </g>
    </g>
    <g id="ytick_4">
     <g id="line2d_21">
      <path d="M 50.14375 211.06458 
L 831.34375 211.06458 
" clip-path="url(#p27410af6ae)" style="fill: none; stroke: #b0b0b0; stroke-width: 0.8; stroke-linecap: square"/>
     </g>
     <g id="line2d_22">
      <g>
       <use xlink:href="#maa230c28ef" x="50.14375" y="211.06458" style="stroke: #000000; stroke-width: 0.8"/>
      </g>
     </g>
     <g id="text_12">
      <!-- 9.0 -->
      <g transform="translate(27.240625 214.863799) scale(0.1 -0.1)">
       <defs>
        <path id="DejaVuSans-39" d="M 703 97 
L 703 672 
Q 941 559 1184 500 
Q 1428 441 1663 441 
Q 2288 441 2617 861 
Q 2947 1281 2994 2138 
Q 2813 1869 2534 1725 
Q 2256 1581 1919 1581 
Q 1219 1581 811 2004 
Q 403 2428 403 3163 
Q 403 3881 828 4315 
Q 1253 4750 1959 4750 
Q 2769 4750 3195 4129 
Q 3622 3509 3622 2328 
Q 3622 1225 3098 567 
Q 2575 -91 1691 -91 
Q 1453 -91 1209 -44 
Q 966 3 703 97 
z
M 1959 2075 
Q 2384 2075 2632 2365 
Q 2881 2656 2881 3163 
Q 2881 3666 2632 3958 
Q 2384 4250 1959 4250 
Q 1534 4250 1286 3958 
Q 1038 3666 1038 3163 
Q 1038 2656 1286 2365 
Q 1534 2075 1959 2075 
z
" transform="scale(0.015625)"/>
       </defs>
       <use xlink:href="#DejaVuSans-39"/>
       <use xlink:href="#DejaVuSans-2e" x="63.623047"/>
       <use xlink:href="#DejaVuSans-30" x="95.410156"/>
      </g>
     </g>
    </g>
    <g id="ytick_5">
     <g id="line2d_23">
      <path d="M 50.14375 170.662581 
L 831.34375 170.662581 
" clip-path="url(#p27410af6ae)" style="fill: none; stroke: #b0b0b0; stroke-width: 0.8; stroke-linecap: square"/>
     </g>
     <g id="line2d_24">
      <g>
       <use xlink:href="#maa230c28ef" x="50.14375" y="170.662581" style="stroke: #000000; stroke-width: 0.8"/>
      </g>
     </g>
     <g id="text_13">
      <!-- 9.5 -->
      <g transform="translate(27.240625 174.461799) scale(0.1 -0.1)">
       <use xlink:href="#DejaVuSans-39"/>
       <use xlink:href="#DejaVuSans-2e" x="63.623047"/>
       <use xlink:href="#DejaVuSans-35" x="95.410156"/>
      </g>
     </g>
    </g>
    <g id="ytick_6">
     <g id="line2d_25">
      <path d="M 50.14375 130.260581 
L 831.34375 130.260581 
" clip-path="url(#p27410af6ae)" style="fill: none; stroke: #b0b0b0; stroke-width: 0.8; stroke-linecap: square"/>
     </g>
     <g id="line2d_26">
      <g>
       <use xlink:href="#maa230c28ef" x="50.14375" y="130.260581" style="stroke: #000000; stroke-width: 0.8"/>
      </g>
     </g>
     <g id="text_14">
      <!-- 10.0 -->
      <g transform="translate(20.878125 134.0598) scale(0.1 -0.1)">
       <use xlink:href="#DejaVuSans-31"/>
       <use xlink:href="#DejaVuSans-30" x="63.623047"/>
       <use xlink:href="#DejaVuSans-2e" x="127.246094"/>
       <use xlink:href="#DejaVuSans-30" x="159.033203"/>
      </g>
     </g>
    </g>
    <g id="ytick_7">
     <g id="line2d_27">
      <path d="M 50.14375 89.858582 
L 831.34375 89.858582 
" clip-path="url(#p27410af6ae)" style="fill: none; stroke: #b0b0b0; stroke-width: 0.8; stroke-linecap: square"/>
     </g>
     <g id="line2d_28">
      <g>
       <use xlink:href="#maa230c28ef" x="50.14375" y="89.858582" style="stroke: #000000; stroke-width: 0.8"/>
      </g>
     </g>
     <g id="text_15">
      <!-- 10.5 -->
      <g transform="translate(20.878125 93.657801) scale(0.1 -0.1)">
       <use xlink:href="#DejaVuSans-31"/>
       <use xlink:href="#DejaVuSans-30" x="63.623047"/>
       <use xlink:href="#DejaVuSans-2e" x="127.246094"/>
       <use xlink:href="#DejaVuSans-35" x="159.033203"/>
      </g>
     </g>
    </g>
    <g id="ytick_8">
     <g id="line2d_29">
      <path d="M 50.14375 49.456583 
L 831.34375 49.456583 
" clip-path="url(#p27410af6ae)" style="fill: none; stroke: #b0b0b0; stroke-width: 0.8; stroke-linecap: square"/>
     </g>
     <g id="line2d_30">
      <g>
       <use xlink:href="#maa230c28ef" x="50.14375" y="49.456583" style="stroke: #000000; stroke-width: 0.8"/>
      </g>
     </g>
     <g id="text_16">
      <!-- 11.0 -->
      <g transform="translate(20.878125 53.255801) scale(0.1 -0.1)">
       <use xlink:href="#DejaVuSans-31"/>
       <use xlink:href="#DejaVuSans-31" x="63.623047"/>
       <use xlink:href="#DejaVuSans-2e" x="127.246094"/>
       <use xlink:href="#DejaVuSans-30" x="159.033203"/>
      </g>
     </g>
    </g>
    <g id="text_17">
     <!-- ln(R) -->
     <g transform="translate(14.798437 200.571719) rotate(-90) scale(0.1 -0.1)">
      <defs>
       <path id="DejaVuSans-6c" d="M 603 4863 
L 1178 4863 
L 1178 0 
L 603 0 
L 603 4863 
z
" transform="scale(0.015625)"/>
       <path id="DejaVuSans-6e" d="M 3513 2113 
L 3513 0 
L 2938 0 
L 2938 2094 
Q 2938 2591 2744 2837 
Q 2550 3084 2163 3084 
Q 1697 3084 1428 2787 
Q 1159 2491 1159 1978 
L 1159 0 
L 581 0 
L 581 3500 
L 1159 3500 
L 1159 2956 
Q 1366 3272 1645 3428 
Q 1925 3584 2291 3584 
Q 2894 3584 3203 3211 
Q 3513 2838 3513 2113 
z
" transform="scale(0.015625)"/>
       <path id="DejaVuSans-28" d="M 1984 4856 
Q 1566 4138 1362 3434 
Q 1159 2731 1159 2009 
Q 1159 1288 1364 580 
Q 1569 -128 1984 -844 
L 1484 -844 
Q 1016 -109 783 600 
Q 550 1309 550 2009 
Q 550 2706 781 3412 
Q 1013 4119 1484 4856 
L 1984 4856 
z
" transform="scale(0.015625)"/>
       <path id="DejaVuSans-52" d="M 2841 2188 
Q 3044 2119 3236 1894 
Q 3428 1669 3622 1275 
L 4263 0 
L 3584 0 
L 2988 1197 
Q 2756 1666 2539 1819 
Q 2322 1972 1947 1972 
L 1259 1972 
L 1259 0 
L 628 0 
L 628 4666 
L 2053 4666 
Q 2853 4666 3247 4331 
Q 3641 3997 3641 3322 
Q 3641 2881 3436 2590 
Q 3231 2300 2841 2188 
z
M 1259 4147 
L 1259 2491 
L 2053 2491 
Q 2509 2491 2742 2702 
Q 2975 2913 2975 3322 
Q 2975 3731 2742 3939 
Q 2509 4147 2053 4147 
L 1259 4147 
z
" transform="scale(0.015625)"/>
       <path id="DejaVuSans-29" d="M 513 4856 
L 1013 4856 
Q 1481 4119 1714 3412 
Q 1947 2706 1947 2009 
Q 1947 1309 1714 600 
Q 1481 -109 1013 -844 
L 513 -844 
Q 928 -128 1133 580 
Q 1338 1288 1338 2009 
Q 1338 2731 1133 3434 
Q 928 4138 513 4856 
z
" transform="scale(0.015625)"/>
      </defs>
      <use xlink:href="#DejaVuSans-6c"/>
      <use xlink:href="#DejaVuSans-6e" x="27.783203"/>
      <use xlink:href="#DejaVuSans-28" x="91.162109"/>
      <use xlink:href="#DejaVuSans-52" x="130.175781"/>
      <use xlink:href="#DejaVuSans-29" x="199.658203"/>
     </g>
    </g>
   </g>
   <g id="line2d_31">
    <path d="M 85.652841 310.876308 
L 87.488135 309.699571 
L 89.298035 308.742749 
L 91.080388 307.707645 
L 92.837072 306.643482 
L 94.575101 305.645205 
L 96.302153 304.625925 
L 98.019421 303.700847 
L 99.716252 302.783197 
L 101.397453 301.816552 
L 103.086876 300.876996 
L 104.787844 299.910078 
L 106.505158 298.97858 
L 108.240357 298.079011 
L 109.995557 297.099264 
L 111.775181 296.078871 
L 113.577337 295.148719 
L 115.371659 294.140759 
L 117.186441 293.14435 
L 119.029801 292.111321 
L 120.896355 291.113871 
L 122.793027 290.128915 
L 124.717611 289.023442 
L 126.670443 287.998436 
L 128.647823 286.859683 
L 130.628456 285.70915 
L 132.62159 284.669729 
L 134.641696 283.595846 
L 136.688867 282.542082 
L 138.764737 281.440118 
L 140.869249 280.288871 
L 143.001746 279.20679 
L 145.16264 278.04874 
" clip-path="url(#p27410af6ae)" style="fill: none; stroke: #0000ff; stroke-width: 1.5; stroke-linecap: square"/>
   </g>
   <g id="line2d_32">
    <path d="M 85.652841 310.805189 
L 87.488135 309.752118 
L 89.298035 308.713617 
L 91.080388 307.690923 
L 92.837072 306.682957 
L 94.575101 305.685696 
L 96.302153 304.694732 
L 98.019421 303.709383 
L 99.716252 302.73576 
L 101.397453 301.771106 
" clip-path="url(#p27410af6ae)" style="fill: none; stroke: #ff0000; stroke-width: 2; stroke-linecap: square"/>
   </g>
   <g id="line2d_33">
    <path d="M 126.670443 287.898341 
L 128.647823 286.841686 
L 130.628456 285.783292 
L 132.62159 284.718218 
L 134.641696 283.638731 
L 136.688867 282.544781 
L 138.764737 281.435495 
L 140.869249 280.310904 
L 143.001746 279.171359 
L 145.16264 278.016639 
" clip-path="url(#p27410af6ae)" style="fill: none; stroke: #008000; stroke-width: 2; stroke-linecap: square"/>
   </g>
   <g id="line2d_34">
    <path d="M 85.652841 316.816565 
L 89.298035 314.675196 
L 111.775181 301.930593 
L 113.577337 301.012484 
L 117.186441 298.962398 
L 136.688867 288.297787 
L 177.102282 266.528436 
L 187.111061 261.341635 
L 197.568534 255.734829 
L 200.223316 254.444135 
L 205.58222 251.588697 
L 216.713379 245.969376 
L 222.37623 242.978052 
L 237.126904 236.012535 
L 243.15847 233.050523 
L 246.227544 231.574045 
L 252.480057 228.363307 
L 265.283259 222.092789 
L 268.558299 220.268816 
L 275.254487 216.871741 
L 278.609094 215.305107 
L 281.990236 213.602935 
L 285.416646 212.041769 
L 292.393117 208.288686 
L 295.955107 206.691205 
L 299.49752 204.716106 
L 303.066201 203.127361 
L 314.042117 197.371614 
L 317.803007 195.587524 
L 321.541517 193.680946 
L 325.304167 191.965045 
L 329.124875 190.017509 
L 336.910556 186.304558 
L 340.88471 184.442567 
L 344.812249 182.231879 
L 348.806571 180.495475 
L 352.846112 178.372255 
L 356.946937 176.964385 
L 361.100087 174.864592 
L 365.298237 173.108899 
L 369.475227 170.910134 
L 373.716322 168.896069 
L 378.015466 167.136129 
L 382.37993 164.943138 
L 386.804977 163.139396 
L 391.243183 161.058105 
L 395.695948 159.148477 
L 400.207736 156.602543 
L 409.4375 152.394368 
L 414.157601 151.100668 
L 418.857681 148.273513 
L 433.331223 142.550367 
L 438.303286 140.355411 
L 448.313674 135.661949 
L 453.389029 132.922796 
L 458.547204 130.848733 
L 469.09067 125.85276 
L 479.731613 121.775232 
L 485.160498 120.996579 
L 490.677457 118.877271 
L 496.281345 117.365367 
L 513.329629 112.086156 
L 519.156571 110.777826 
L 525.082339 109.184035 
L 531.107341 107.745989 
L 537.099796 106.6495 
L 543.171797 105.334303 
L 549.334296 103.550199 
L 555.608362 102.19765 
L 561.992926 100.356866 
L 568.399463 98.820976 
L 574.828464 97.047789 
L 581.36529 95.765581 
L 588.028296 93.673002 
L 601.648043 90.019788 
L 622.527776 84.238754 
L 629.739543 82.713815 
L 637.001983 80.318976 
L 651.746742 75.197402 
L 659.323272 73.526394 
L 674.773122 69.456888 
L 682.594487 67.260536 
L 690.56896 65.362587 
L 698.703183 63.60718 
L 706.97067 60.889959 
L 715.217324 59.495421 
L 723.629503 56.987543 
L 740.950021 52.581805 
L 749.756212 49.66348 
L 767.705037 45.150709 
L 776.961772 42.851639 
L 786.42274 40.299644 
L 795.834659 37.438125 
L 795.834659 37.438125 
" clip-path="url(#p27410af6ae)" style="fill: none; stroke: #008000; stroke-width: 1.5; stroke-linecap: square"/>
   </g>
   <g id="line2d_35">
    <path d="M 85.652841 316.766734 
L 87.488135 315.709184 
L 89.298035 314.666267 
L 91.080388 313.639223 
L 92.837072 312.626971 
L 94.575101 311.625468 
L 96.302153 310.63029 
L 98.019421 309.64075 
L 99.716252 308.662987 
L 101.397453 307.69423 
" clip-path="url(#p27410af6ae)" style="fill: none; stroke: #ff0000; stroke-width: 2; stroke-linecap: square"/>
   </g>
   <g id="line2d_36">
    <path d="M 715.217324 59.340685 
L 723.629503 57.067425 
L 732.198419 54.751808 
L 740.950021 52.386824 
L 749.756212 50.007087 
L 758.634325 47.607915 
L 767.705037 45.156696 
L 776.961772 42.655207 
L 786.42274 40.098527 
L 795.834659 37.555102 
" clip-path="url(#p27410af6ae)" style="fill: none; stroke: #008000; stroke-width: 2; stroke-linecap: square"/>
   </g>
   <g id="line2d_37">
    <path d="M 85.652841 339.838125 
L 87.488135 338.560918 
L 92.837072 335.163399 
L 98.019421 331.874399 
L 113.577337 322.464428 
L 117.186441 320.262755 
L 132.62159 311.111033 
L 145.16264 303.897808 
L 149.201346 301.20035 
L 155.871647 297.52617 
L 162.781483 293.572578 
L 165.094225 292.361315 
L 172.206254 288.165305 
L 174.639051 286.919553 
L 179.599421 284.141291 
L 213.880287 265.388572 
L 219.541161 262.370189 
L 222.37623 260.797471 
L 234.104194 255.019958 
L 246.227544 248.878297 
L 249.330006 247.156929 
L 268.558299 237.262828 
L 275.254487 233.666319 
L 285.416646 228.700667 
L 292.393117 224.87128 
L 295.955107 223.238947 
L 299.49752 221.237389 
L 303.066201 219.599531 
L 310.339528 215.751277 
L 314.042117 213.810202 
L 317.803007 212.038147 
L 321.541517 210.090335 
L 325.304167 208.309792 
L 329.124875 206.308616 
L 336.910556 202.646024 
L 340.88471 200.725569 
L 344.812249 198.488812 
L 348.806571 196.685536 
L 352.846112 194.58803 
L 356.946937 193.218086 
L 361.100087 191.226546 
L 365.298237 189.340133 
L 369.475227 187.182166 
L 373.716322 185.180258 
L 378.015466 183.418198 
L 382.37993 181.236683 
L 386.804977 179.413864 
L 395.695948 175.38951 
L 400.207736 172.857569 
L 404.788388 170.748406 
L 409.4375 168.73288 
L 414.157601 167.374984 
L 418.857681 164.573625 
L 423.603073 162.81995 
L 433.331223 159.008373 
L 438.303286 156.788224 
L 443.313758 154.339743 
L 448.313674 152.061227 
L 453.389029 149.337705 
L 458.547204 147.220588 
L 469.09067 142.378626 
L 474.390952 140.32556 
L 479.731613 138.401701 
L 485.160498 137.527475 
L 490.677457 135.650286 
L 496.281345 134.171019 
L 513.329629 129.279113 
L 519.156571 128.112316 
L 531.107341 125.186765 
L 537.099796 124.226533 
L 543.171797 123.000077 
L 549.334296 121.208898 
L 555.608362 120.110256 
L 561.992926 118.4443 
L 568.399463 116.974058 
L 574.828464 115.382158 
L 581.36529 114.142121 
L 588.028296 112.276188 
L 629.739543 101.958873 
L 637.001983 99.926161 
L 651.746742 95.264352 
L 667.053218 91.759284 
L 690.56896 86.234599 
L 698.703183 84.723166 
L 706.97067 82.182035 
L 715.217324 80.929583 
L 723.629503 78.616456 
L 740.950021 74.623321 
L 749.756212 72.192481 
L 758.634325 70.059254 
L 776.961772 65.983522 
L 786.42274 63.65411 
L 795.834659 60.964743 
L 795.834659 60.964743 
" clip-path="url(#p27410af6ae)" style="fill: none; stroke: #ff0000; stroke-width: 1.5; stroke-linecap: square"/>
   </g>
   <g id="line2d_38">
    <path d="M 85.652841 339.754178 
L 87.488135 338.590436 
L 89.298035 337.442795 
L 91.080388 336.312623 
L 92.837072 335.198726 
L 94.575101 334.096659 
L 96.302153 333.001551 
L 98.019421 331.912648 
L 99.716252 330.836704 
L 101.397453 329.770671 
" clip-path="url(#p27410af6ae)" style="fill: none; stroke: #ff0000; stroke-width: 2; stroke-linecap: square"/>
   </g>
   <g id="line2d_39">
    <path d="M 715.217324 80.777065 
L 723.629503 78.732048 
L 732.198419 76.648928 
L 740.950021 74.521396 
L 749.756212 72.380593 
L 758.634325 70.222306 
L 767.705037 68.017198 
L 776.961772 65.766868 
L 786.42274 63.466888 
L 795.834659 61.178832 
" clip-path="url(#p27410af6ae)" style="fill: none; stroke: #008000; stroke-width: 2; stroke-linecap: square"/>
   </g>
   <g id="line2d_40">
    <path d="M 265.283259 214.54331 
L 268.558299 212.619459 
L 271.890284 210.995651 
L 275.254487 209.290549 
L 382.37993 158.271048 
L 386.804977 156.421697 
L 391.243183 154.292299 
L 395.695948 152.355551 
L 458.547204 125.776939 
L 463.775071 123.176653 
L 469.09067 120.739984 
L 537.099796 103.685869 
L 543.171797 102.366084 
L 549.334296 100.475249 
L 555.608362 99.070901 
L 561.992926 97.224084 
L 622.527776 84.238754 
L 629.739543 82.713815 
L 637.001983 80.318976 
L 690.56896 69.400974 
L 698.703183 67.655032 
L 706.97067 64.918593 
L 715.217324 63.576108 
L 749.756212 58.538543 
L 758.634325 56.318312 
L 767.705037 54.199676 
L 776.961772 51.98473 
" clip-path="url(#p27410af6ae)" style="fill: none; stroke: #00ffff; stroke-width: 1.5; stroke-linecap: square"/>
   </g>
   <g id="line2d_41">
    <path d="M 265.283259 213.737996 
L 268.558299 212.222082 
L 271.890284 210.67981 
L 275.254487 209.122626 
L 382.37993 159.53761 
L 386.804977 157.489395 
L 391.243183 155.435088 
L 395.695948 153.374042 
L 458.547204 124.282162 
L 463.775071 121.862346 
" clip-path="url(#p27410af6ae)" style="fill: none; stroke: #ff0000; stroke-width: 2; stroke-linecap: square"/>
   </g>
   <g id="line2d_42">
    <path d="M 629.739543 81.780883 
L 637.001983 80.316103 
L 690.56896 69.512043 
L 698.703183 67.871431 
L 706.97067 66.20394 
L 715.217324 64.540651 
L 749.756212 57.574415 
L 758.634325 55.783766 
L 767.705037 53.954271 
L 776.961772 52.087257 
" clip-path="url(#p27410af6ae)" style="fill: none; stroke: #008000; stroke-width: 2; stroke-linecap: square"/>
   </g>
   <g id="line2d_43">
    <path d="M 96.302153 303.794094 
L 98.019421 302.87446 
L 99.716252 301.950619 
L 101.397453 300.997162 
L 103.086876 300.005236 
L 104.787844 299.067415 
L 106.505158 298.120756 
L 108.240357 297.212997 
L 130.628456 285.70915 
L 132.62159 284.669729 
L 134.641696 283.595846 
L 136.688867 282.542082 
L 138.764737 281.440118 
L 140.869249 280.288871 
L 143.001746 279.20679 
L 158.141635 271.948704 
L 160.45358 270.725569 
L 162.781483 269.4598 
L 165.094225 268.310057 
L 167.438243 267.002208 
L 169.804195 265.727758 
L 172.206254 264.377701 
L 208.319454 247.740179 
L 211.083855 246.351954 
L 213.880287 244.896099 
L 216.713379 243.446733 
L 219.541161 241.911216 
L 249.330006 229.956875 
L 252.480057 228.363307 
L 255.669104 226.808434 
L 258.844053 225.318119 
L 262.045588 223.671117 
L 285.416646 214.810169 
L 288.883072 212.933231 
L 292.393117 211.080367 
L 295.955107 209.451672 
L 314.042117 203.16822 
L 317.803007 201.394041 
L 321.541517 199.524025 
L 325.304167 197.744741 
L 329.124875 195.803325 
L 344.812249 191.285499 
L 348.806571 189.535782 
L 352.846112 187.420125 
L 356.946937 186.012036 
L 373.716322 181.515945 
L 378.015466 179.698139 
L 382.37993 177.540953 
L 386.804977 175.764987 
L 400.207736 172.857569 
L 404.788388 170.748406 
L 409.4375 168.73288 
L 414.157601 167.374984 
L 423.603073 166.606476 
L 428.435819 164.717921 
L 433.331223 162.832837 
L 438.303286 160.61671 
L 448.313674 159.818411 
L 453.389029 157.068445 
L 458.547204 154.937182 
L 463.775071 152.555067 
L 474.390952 152.106755 
L 479.731613 150.186566 
L 485.160498 149.210059 
L 490.677457 147.469228 
L 496.281345 146.065767 
L 507.58929 146.962823 
L 513.329629 145.557381 
L 519.156571 144.400569 
L 525.082339 142.950035 
L 531.107341 141.471326 
L 537.099796 140.582437 
L 555.608362 141.202772 
L 561.992926 139.623146 
L 568.399463 138.168696 
L 574.828464 136.698434 
L 581.36529 135.42936 
L 601.648043 135.151435 
L 608.486314 133.634761 
L 615.445906 131.937878 
L 622.527776 130.181131 
L 637.001983 131.427578 
L 644.304169 129.181714 
L 651.746742 127.009852 
L 659.323272 125.460909 
L 674.773122 127.131151 
L 682.594487 125.365366 
L 690.56896 123.729232 
L 698.703183 122.333873 
L 706.97067 119.882957 
L 723.629503 122.177329 
L 732.198419 120.237569 
L 740.950021 118.415701 
L 749.756212 116.310503 
L 767.705037 118.226229 
L 776.961772 116.197439 
L 786.42274 114.094279 
L 795.834659 111.476059 
" clip-path="url(#p27410af6ae)" style="fill: none; stroke: #ff00ff; stroke-width: 1.5; stroke-linecap: square"/>
   </g>
   <g id="line2d_44">
    <path d="M 96.302153 303.641051 
L 98.019421 302.740795 
L 99.716252 301.851253 
L 101.397453 300.969905 
L 103.086876 300.084247 
L 104.787844 299.192536 
L 106.505158 298.292256 
L 108.240357 297.3826 
L 130.628456 285.645925 
L 132.62159 284.60105 
" clip-path="url(#p27410af6ae)" style="fill: none; stroke: #ff0000; stroke-width: 2; stroke-linecap: square"/>
   </g>
   <g id="line2d_45">
    <path d="M 698.703183 122.57948 
L 706.97067 121.799221 
L 723.629503 120.227014 
L 732.198419 119.418307 
L 740.950021 118.592358 
L 749.756212 117.761258 
L 767.705037 116.067305 
L 776.961772 115.193684 
L 786.42274 114.300788 
L 795.834659 113.412522 
" clip-path="url(#p27410af6ae)" style="fill: none; stroke: #008000; stroke-width: 2; stroke-linecap: square"/>
   </g>
   <g id="line2d_46">
    <path d="M 85.652841 318.378667 
L 87.488135 317.245996 
L 89.298035 316.255217 
L 91.080388 315.193676 
L 92.837072 314.132035 
L 94.575101 313.11873 
L 98.019421 312.781155 
L 99.716252 311.874631 
L 101.397453 310.941177 
L 103.086876 309.942584 
L 104.787844 308.953197 
L 106.505158 308.04515 
L 108.240357 307.026691 
L 109.995557 306.053894 
L 111.775181 306.803263 
L 113.577337 305.861199 
L 115.371659 304.759039 
L 117.186441 303.793892 
L 119.029801 302.718192 
L 120.896355 301.757344 
L 122.793027 300.695614 
L 124.717611 299.641494 
L 126.670443 300.383794 
L 128.647823 299.233673 
L 130.628456 298.060651 
L 132.62159 296.984851 
L 134.641696 295.918135 
L 136.688867 294.828117 
L 138.764737 293.66088 
L 140.869249 294.405449 
L 143.001746 293.247478 
L 145.16264 292.116708 
L 153.619598 289.334609 
L 155.871647 288.097601 
L 158.141635 286.814201 
L 160.45358 285.570441 
L 162.781483 284.309072 
L 165.094225 283.10024 
L 179.599421 279.367391 
L 182.07313 278.003568 
L 184.579032 276.601774 
L 187.111061 275.274093 
L 189.678494 273.865679 
L 202.889219 271.286084 
L 205.58222 269.811481 
L 208.319454 268.392123 
L 211.083855 266.889132 
L 213.880287 265.388572 
L 225.25884 264.290142 
L 228.165563 262.809808 
L 231.116321 261.342834 
L 234.104194 259.884761 
L 237.126904 258.319462 
L 240.127332 256.752937 
L 249.330006 257.074465 
L 252.480057 255.444188 
L 255.669104 253.805262 
L 258.844053 252.041754 
L 262.045588 250.370256 
L 271.890284 250.490982 
L 275.254487 248.620735 
L 278.609094 246.892845 
L 281.990236 245.096166 
L 285.416646 243.328281 
L 295.955107 243.515517 
L 299.49752 241.348467 
L 303.066201 239.50201 
L 306.680512 237.420228 
L 317.803007 237.694853 
L 321.541517 235.547312 
L 325.304167 233.597691 
L 329.124875 231.269468 
L 340.88471 232.050592 
L 344.812249 229.522243 
L 348.806571 227.366338 
L 361.100087 228.682663 
L 365.298237 226.484824 
L 369.475227 223.884808 
L 373.716322 221.699954 
L 386.804977 222.790391 
L 391.243183 220.500283 
L 395.695948 218.243626 
L 409.4375 218.747463 
L 414.157601 217.13062 
L 418.857681 213.567757 
L 433.331223 215.687875 
L 438.303286 212.881711 
L 443.313758 209.552363 
L 458.547204 209.637585 
L 463.775071 206.586242 
L 479.731613 207.738556 
L 485.160498 206.214113 
L 490.677457 203.907417 
L 496.281345 201.81769 
L 519.156571 204.57136 
L 525.082339 202.783248 
L 531.107341 200.516599 
L 537.099796 199.306298 
L 543.171797 197.777188 
L 568.399463 201.205839 
L 574.828464 199.30167 
L 581.36529 197.560837 
L 588.028296 195.234518 
L 594.798627 193.243231 
L 622.527776 195.655613 
L 629.739543 193.181772 
L 637.001983 190.528847 
L 659.323272 194.536241 
L 667.053218 191.95238 
L 674.773122 189.500752 
L 682.594487 187.083014 
L 715.217324 190.855652 
L 723.629503 187.755803 
L 732.198419 185.128679 
L 767.705037 187.70668 
L 776.961772 184.766664 
L 786.42274 181.850946 
" clip-path="url(#p27410af6ae)" style="fill: none; stroke: #ffff00; stroke-width: 1.5; stroke-linecap: square"/>
   </g>
   <g id="line2d_47">
    <path d="M 85.652841 317.901549 
L 87.488135 317.072039 
L 89.298035 316.254007 
L 91.080388 315.448426 
L 92.837072 314.654446 
L 94.575101 313.868899 
L 98.019421 312.312147 
L 99.716252 311.54522 
L 101.397453 310.785357 
L 103.086876 310.021778 
" clip-path="url(#p27410af6ae)" style="fill: none; stroke: #ff0000; stroke-width: 2; stroke-linecap: square"/>
   </g>
   <g id="line2d_48">
    <path d="M 659.323272 191.942962 
L 667.053218 191.443505 
L 674.773122 190.944697 
L 682.594487 190.439333 
L 715.217324 188.331465 
L 723.629503 187.787926 
L 732.198419 187.23426 
L 767.705037 184.940062 
L 776.961772 184.341954 
L 786.42274 183.73065 
" clip-path="url(#p27410af6ae)" style="fill: none; stroke: #008000; stroke-width: 2; stroke-linecap: square"/>
   </g>
   <g id="patch_3">
    <path d="M 50.14375 354.958125 
L 50.14375 22.318125 
" style="fill: none; stroke: #000000; stroke-width: 0.8; stroke-linejoin: miter; stroke-linecap: square"/>
   </g>
   <g id="patch_4">
    <path d="M 831.34375 354.958125 
L 831.34375 22.318125 
" style="fill: none; stroke: #000000; stroke-width: 0.8; stroke-linejoin: miter; stroke-linecap: square"/>
   </g>
   <g id="patch_5">
    <path d="M 50.14375 354.958125 
L 831.34375 354.958125 
" style="fill: none; stroke: #000000; stroke-width: 0.8; stroke-linejoin: miter; stroke-linecap: square"/>
   </g>
   <g id="patch_6">
    <path d="M 50.14375 22.318125 
L 831.34375 22.318125 
" style="fill: none; stroke: #000000; stroke-width: 0.8; stroke-linejoin: miter; stroke-linecap: square"/>
   </g>
   <g id="text_18">
    <!-- Sam 15_2nd_112723_D2_cool ln R vs 1000/T -->
    <g transform="translate(305.892813 16.318125) scale(0.12 -0.12)">
     <defs>
      <path id="DejaVuSans-53" d="M 3425 4513 
L 3425 3897 
Q 3066 4069 2747 4153 
Q 2428 4238 2131 4238 
Q 1616 4238 1336 4038 
Q 1056 3838 1056 3469 
Q 1056 3159 1242 3001 
Q 1428 2844 1947 2747 
L 2328 2669 
Q 3034 2534 3370 2195 
Q 3706 1856 3706 1288 
Q 3706 609 3251 259 
Q 2797 -91 1919 -91 
Q 1588 -91 1214 -16 
Q 841 59 441 206 
L 441 856 
Q 825 641 1194 531 
Q 1563 422 1919 422 
Q 2459 422 2753 634 
Q 3047 847 3047 1241 
Q 3047 1584 2836 1778 
Q 2625 1972 2144 2069 
L 1759 2144 
Q 1053 2284 737 2584 
Q 422 2884 422 3419 
Q 422 4038 858 4394 
Q 1294 4750 2059 4750 
Q 2388 4750 2728 4690 
Q 3069 4631 3425 4513 
z
" transform="scale(0.015625)"/>
      <path id="DejaVuSans-61" d="M 2194 1759 
Q 1497 1759 1228 1600 
Q 959 1441 959 1056 
Q 959 750 1161 570 
Q 1363 391 1709 391 
Q 2188 391 2477 730 
Q 2766 1069 2766 1631 
L 2766 1759 
L 2194 1759 
z
M 3341 1997 
L 3341 0 
L 2766 0 
L 2766 531 
Q 2569 213 2275 61 
Q 1981 -91 1556 -91 
Q 1019 -91 701 211 
Q 384 513 384 1019 
Q 384 1609 779 1909 
Q 1175 2209 1959 2209 
L 2766 2209 
L 2766 2266 
Q 2766 2663 2505 2880 
Q 2244 3097 1772 3097 
Q 1472 3097 1187 3025 
Q 903 2953 641 2809 
L 641 3341 
Q 956 3463 1253 3523 
Q 1550 3584 1831 3584 
Q 2591 3584 2966 3190 
Q 3341 2797 3341 1997 
z
" transform="scale(0.015625)"/>
      <path id="DejaVuSans-6d" d="M 3328 2828 
Q 3544 3216 3844 3400 
Q 4144 3584 4550 3584 
Q 5097 3584 5394 3201 
Q 5691 2819 5691 2113 
L 5691 0 
L 5113 0 
L 5113 2094 
Q 5113 2597 4934 2840 
Q 4756 3084 4391 3084 
Q 3944 3084 3684 2787 
Q 3425 2491 3425 1978 
L 3425 0 
L 2847 0 
L 2847 2094 
Q 2847 2600 2669 2842 
Q 2491 3084 2119 3084 
Q 1678 3084 1418 2786 
Q 1159 2488 1159 1978 
L 1159 0 
L 581 0 
L 581 3500 
L 1159 3500 
L 1159 2956 
Q 1356 3278 1631 3431 
Q 1906 3584 2284 3584 
Q 2666 3584 2933 3390 
Q 3200 3197 3328 2828 
z
" transform="scale(0.015625)"/>
      <path id="DejaVuSans-20" transform="scale(0.015625)"/>
      <path id="DejaVuSans-5f" d="M 3263 -1063 
L 3263 -1509 
L -63 -1509 
L -63 -1063 
L 3263 -1063 
z
" transform="scale(0.015625)"/>
      <path id="DejaVuSans-32" d="M 1228 531 
L 3431 531 
L 3431 0 
L 469 0 
L 469 531 
Q 828 903 1448 1529 
Q 2069 2156 2228 2338 
Q 2531 2678 2651 2914 
Q 2772 3150 2772 3378 
Q 2772 3750 2511 3984 
Q 2250 4219 1831 4219 
Q 1534 4219 1204 4116 
Q 875 4013 500 3803 
L 500 4441 
Q 881 4594 1212 4672 
Q 1544 4750 1819 4750 
Q 2544 4750 2975 4387 
Q 3406 4025 3406 3419 
Q 3406 3131 3298 2873 
Q 3191 2616 2906 2266 
Q 2828 2175 2409 1742 
Q 1991 1309 1228 531 
z
" transform="scale(0.015625)"/>
      <path id="DejaVuSans-64" d="M 2906 2969 
L 2906 4863 
L 3481 4863 
L 3481 0 
L 2906 0 
L 2906 525 
Q 2725 213 2448 61 
Q 2172 -91 1784 -91 
Q 1150 -91 751 415 
Q 353 922 353 1747 
Q 353 2572 751 3078 
Q 1150 3584 1784 3584 
Q 2172 3584 2448 3432 
Q 2725 3281 2906 2969 
z
M 947 1747 
Q 947 1113 1208 752 
Q 1469 391 1925 391 
Q 2381 391 2643 752 
Q 2906 1113 2906 1747 
Q 2906 2381 2643 2742 
Q 2381 3103 1925 3103 
Q 1469 3103 1208 2742 
Q 947 2381 947 1747 
z
" transform="scale(0.015625)"/>
      <path id="DejaVuSans-44" d="M 1259 4147 
L 1259 519 
L 2022 519 
Q 2988 519 3436 956 
Q 3884 1394 3884 2338 
Q 3884 3275 3436 3711 
Q 2988 4147 2022 4147 
L 1259 4147 
z
M 628 4666 
L 1925 4666 
Q 3281 4666 3915 4102 
Q 4550 3538 4550 2338 
Q 4550 1131 3912 565 
Q 3275 0 1925 0 
L 628 0 
L 628 4666 
z
" transform="scale(0.015625)"/>
      <path id="DejaVuSans-63" d="M 3122 3366 
L 3122 2828 
Q 2878 2963 2633 3030 
Q 2388 3097 2138 3097 
Q 1578 3097 1268 2742 
Q 959 2388 959 1747 
Q 959 1106 1268 751 
Q 1578 397 2138 397 
Q 2388 397 2633 464 
Q 2878 531 3122 666 
L 3122 134 
Q 2881 22 2623 -34 
Q 2366 -91 2075 -91 
Q 1284 -91 818 406 
Q 353 903 353 1747 
Q 353 2603 823 3093 
Q 1294 3584 2113 3584 
Q 2378 3584 2631 3529 
Q 2884 3475 3122 3366 
z
" transform="scale(0.015625)"/>
      <path id="DejaVuSans-6f" d="M 1959 3097 
Q 1497 3097 1228 2736 
Q 959 2375 959 1747 
Q 959 1119 1226 758 
Q 1494 397 1959 397 
Q 2419 397 2687 759 
Q 2956 1122 2956 1747 
Q 2956 2369 2687 2733 
Q 2419 3097 1959 3097 
z
M 1959 3584 
Q 2709 3584 3137 3096 
Q 3566 2609 3566 1747 
Q 3566 888 3137 398 
Q 2709 -91 1959 -91 
Q 1206 -91 779 398 
Q 353 888 353 1747 
Q 353 2609 779 3096 
Q 1206 3584 1959 3584 
z
" transform="scale(0.015625)"/>
      <path id="DejaVuSans-76" d="M 191 3500 
L 800 3500 
L 1894 563 
L 2988 3500 
L 3597 3500 
L 2284 0 
L 1503 0 
L 191 3500 
z
" transform="scale(0.015625)"/>
      <path id="DejaVuSans-73" d="M 2834 3397 
L 2834 2853 
Q 2591 2978 2328 3040 
Q 2066 3103 1784 3103 
Q 1356 3103 1142 2972 
Q 928 2841 928 2578 
Q 928 2378 1081 2264 
Q 1234 2150 1697 2047 
L 1894 2003 
Q 2506 1872 2764 1633 
Q 3022 1394 3022 966 
Q 3022 478 2636 193 
Q 2250 -91 1575 -91 
Q 1294 -91 989 -36 
Q 684 19 347 128 
L 347 722 
Q 666 556 975 473 
Q 1284 391 1588 391 
Q 1994 391 2212 530 
Q 2431 669 2431 922 
Q 2431 1156 2273 1281 
Q 2116 1406 1581 1522 
L 1381 1569 
Q 847 1681 609 1914 
Q 372 2147 372 2553 
Q 372 3047 722 3315 
Q 1072 3584 1716 3584 
Q 2034 3584 2315 3537 
Q 2597 3491 2834 3397 
z
" transform="scale(0.015625)"/>
     </defs>
     <use xlink:href="#DejaVuSans-53"/>
     <use xlink:href="#DejaVuSans-61" x="63.476562"/>
     <use xlink:href="#DejaVuSans-6d" x="124.755859"/>
     <use xlink:href="#DejaVuSans-20" x="222.167969"/>
     <use xlink:href="#DejaVuSans-31" x="253.955078"/>
     <use xlink:href="#DejaVuSans-35" x="317.578125"/>
     <use xlink:href="#DejaVuSans-5f" x="381.201172"/>
     <use xlink:href="#DejaVuSans-32" x="431.201172"/>
     <use xlink:href="#DejaVuSans-6e" x="494.824219"/>
     <use xlink:href="#DejaVuSans-64" x="558.203125"/>
     <use xlink:href="#DejaVuSans-5f" x="621.679688"/>
     <use xlink:href="#DejaVuSans-31" x="671.679688"/>
     <use xlink:href="#DejaVuSans-31" x="735.302734"/>
     <use xlink:href="#DejaVuSans-32" x="798.925781"/>
     <use xlink:href="#DejaVuSans-37" x="862.548828"/>
     <use xlink:href="#DejaVuSans-32" x="926.171875"/>
     <use xlink:href="#DejaVuSans-33" x="989.794922"/>
     <use xlink:href="#DejaVuSans-5f" x="1053.417969"/>
     <use xlink:href="#DejaVuSans-44" x="1103.417969"/>
     <use xlink:href="#DejaVuSans-32" x="1180.419922"/>
     <use xlink:href="#DejaVuSans-5f" x="1244.042969"/>
     <use xlink:href="#DejaVuSans-63" x="1294.042969"/>
     <use xlink:href="#DejaVuSans-6f" x="1349.023438"/>
     <use xlink:href="#DejaVuSans-6f" x="1410.205078"/>
     <use xlink:href="#DejaVuSans-6c" x="1471.386719"/>
     <use xlink:href="#DejaVuSans-20" x="1499.169922"/>
     <use xlink:href="#DejaVuSans-6c" x="1530.957031"/>
     <use xlink:href="#DejaVuSans-6e" x="1558.740234"/>
     <use xlink:href="#DejaVuSans-20" x="1622.119141"/>
     <use xlink:href="#DejaVuSans-52" x="1653.90625"/>
     <use xlink:href="#DejaVuSans-20" x="1723.388672"/>
     <use xlink:href="#DejaVuSans-76" x="1755.175781"/>
     <use xlink:href="#DejaVuSans-73" x="1814.355469"/>
     <use xlink:href="#DejaVuSans-20" x="1866.455078"/>
     <use xlink:href="#DejaVuSans-31" x="1898.242188"/>
     <use xlink:href="#DejaVuSans-30" x="1961.865234"/>
     <use xlink:href="#DejaVuSans-30" x="2025.488281"/>
     <use xlink:href="#DejaVuSans-30" x="2089.111328"/>
     <use xlink:href="#DejaVuSans-2f" x="2152.734375"/>
     <use xlink:href="#DejaVuSans-54" x="2186.425781"/>
    </g>
   </g>
   <g id="legend_1">
    <g id="patch_7">
     <path d="M 57.14375 120.055625 
L 244.717188 120.055625 
Q 246.717188 120.055625 246.717188 118.055625 
L 246.717188 29.318125 
Q 246.717188 27.318125 244.717188 27.318125 
L 57.14375 27.318125 
Q 55.14375 27.318125 55.14375 29.318125 
L 55.14375 118.055625 
Q 55.14375 120.055625 57.14375 120.055625 
z
" style="fill: #ffffff; opacity: 0.8; stroke: #cccccc; stroke-linejoin: miter"/>
    </g>
    <g id="line2d_49">
     <path d="M 59.14375 35.416562 
L 69.14375 35.416562 
L 79.14375 35.416562 
" style="fill: none; stroke: #0000ff; stroke-width: 1.5; stroke-linecap: square"/>
    </g>
    <g id="text_19">
     <!-- 0.1 V  E_a: 0.129 - 0.139 eV -->
     <g transform="translate(87.14375 38.916562) scale(0.1 -0.1)">
      <defs>
       <path id="DejaVuSans-56" d="M 1831 0 
L 50 4666 
L 709 4666 
L 2188 738 
L 3669 4666 
L 4325 4666 
L 2547 0 
L 1831 0 
z
" transform="scale(0.015625)"/>
       <path id="DejaVuSans-45" d="M 628 4666 
L 3578 4666 
L 3578 4134 
L 1259 4134 
L 1259 2753 
L 3481 2753 
L 3481 2222 
L 1259 2222 
L 1259 531 
L 3634 531 
L 3634 0 
L 628 0 
L 628 4666 
z
" transform="scale(0.015625)"/>
       <path id="DejaVuSans-3a" d="M 750 794 
L 1409 794 
L 1409 0 
L 750 0 
L 750 794 
z
M 750 3309 
L 1409 3309 
L 1409 2516 
L 750 2516 
L 750 3309 
z
" transform="scale(0.015625)"/>
       <path id="DejaVuSans-2d" d="M 313 2009 
L 1997 2009 
L 1997 1497 
L 313 1497 
L 313 2009 
z
" transform="scale(0.015625)"/>
       <path id="DejaVuSans-65" d="M 3597 1894 
L 3597 1613 
L 953 1613 
Q 991 1019 1311 708 
Q 1631 397 2203 397 
Q 2534 397 2845 478 
Q 3156 559 3463 722 
L 3463 178 
Q 3153 47 2828 -22 
Q 2503 -91 2169 -91 
Q 1331 -91 842 396 
Q 353 884 353 1716 
Q 353 2575 817 3079 
Q 1281 3584 2069 3584 
Q 2775 3584 3186 3129 
Q 3597 2675 3597 1894 
z
M 3022 2063 
Q 3016 2534 2758 2815 
Q 2500 3097 2075 3097 
Q 1594 3097 1305 2825 
Q 1016 2553 972 2059 
L 3022 2063 
z
" transform="scale(0.015625)"/>
      </defs>
      <use xlink:href="#DejaVuSans-30"/>
      <use xlink:href="#DejaVuSans-2e" x="63.623047"/>
      <use xlink:href="#DejaVuSans-31" x="95.410156"/>
      <use xlink:href="#DejaVuSans-20" x="159.033203"/>
      <use xlink:href="#DejaVuSans-56" x="190.820312"/>
      <use xlink:href="#DejaVuSans-20" x="259.228516"/>
      <use xlink:href="#DejaVuSans-20" x="291.015625"/>
      <use xlink:href="#DejaVuSans-45" x="322.802734"/>
      <use xlink:href="#DejaVuSans-5f" x="385.986328"/>
      <use xlink:href="#DejaVuSans-61" x="435.986328"/>
      <use xlink:href="#DejaVuSans-3a" x="497.265625"/>
      <use xlink:href="#DejaVuSans-20" x="530.957031"/>
      <use xlink:href="#DejaVuSans-30" x="562.744141"/>
      <use xlink:href="#DejaVuSans-2e" x="626.367188"/>
      <use xlink:href="#DejaVuSans-31" x="658.154297"/>
      <use xlink:href="#DejaVuSans-32" x="721.777344"/>
      <use xlink:href="#DejaVuSans-39" x="785.400391"/>
      <use xlink:href="#DejaVuSans-20" x="849.023438"/>
      <use xlink:href="#DejaVuSans-2d" x="880.810547"/>
      <use xlink:href="#DejaVuSans-20" x="916.894531"/>
      <use xlink:href="#DejaVuSans-30" x="948.681641"/>
      <use xlink:href="#DejaVuSans-2e" x="1012.304688"/>
      <use xlink:href="#DejaVuSans-31" x="1044.091797"/>
      <use xlink:href="#DejaVuSans-33" x="1107.714844"/>
      <use xlink:href="#DejaVuSans-39" x="1171.337891"/>
      <use xlink:href="#DejaVuSans-20" x="1234.960938"/>
      <use xlink:href="#DejaVuSans-65" x="1266.748047"/>
      <use xlink:href="#DejaVuSans-56" x="1328.271484"/>
     </g>
    </g>
    <g id="line2d_50">
     <path d="M 59.14375 50.372812 
L 69.14375 50.372812 
L 79.14375 50.372812 
" style="fill: none; stroke: #008000; stroke-width: 1.5; stroke-linecap: square"/>
    </g>
    <g id="text_20">
     <!-- 0.2 V  E_a: 0.065 - 0.14 eV -->
     <g transform="translate(87.14375 53.872812) scale(0.1 -0.1)">
      <use xlink:href="#DejaVuSans-30"/>
      <use xlink:href="#DejaVuSans-2e" x="63.623047"/>
      <use xlink:href="#DejaVuSans-32" x="95.410156"/>
      <use xlink:href="#DejaVuSans-20" x="159.033203"/>
      <use xlink:href="#DejaVuSans-56" x="190.820312"/>
      <use xlink:href="#DejaVuSans-20" x="259.228516"/>
      <use xlink:href="#DejaVuSans-20" x="291.015625"/>
      <use xlink:href="#DejaVuSans-45" x="322.802734"/>
      <use xlink:href="#DejaVuSans-5f" x="385.986328"/>
      <use xlink:href="#DejaVuSans-61" x="435.986328"/>
      <use xlink:href="#DejaVuSans-3a" x="497.265625"/>
      <use xlink:href="#DejaVuSans-20" x="530.957031"/>
      <use xlink:href="#DejaVuSans-30" x="562.744141"/>
      <use xlink:href="#DejaVuSans-2e" x="626.367188"/>
      <use xlink:href="#DejaVuSans-30" x="658.154297"/>
      <use xlink:href="#DejaVuSans-36" x="721.777344"/>
      <use xlink:href="#DejaVuSans-35" x="785.400391"/>
      <use xlink:href="#DejaVuSans-20" x="849.023438"/>
      <use xlink:href="#DejaVuSans-2d" x="880.810547"/>
      <use xlink:href="#DejaVuSans-20" x="916.894531"/>
      <use xlink:href="#DejaVuSans-30" x="948.681641"/>
      <use xlink:href="#DejaVuSans-2e" x="1012.304688"/>
      <use xlink:href="#DejaVuSans-31" x="1044.091797"/>
      <use xlink:href="#DejaVuSans-34" x="1107.714844"/>
      <use xlink:href="#DejaVuSans-20" x="1171.337891"/>
      <use xlink:href="#DejaVuSans-65" x="1203.125"/>
      <use xlink:href="#DejaVuSans-56" x="1264.648438"/>
     </g>
    </g>
    <g id="line2d_51">
     <path d="M 59.14375 65.329062 
L 69.14375 65.329062 
L 79.14375 65.329062 
" style="fill: none; stroke: #ff0000; stroke-width: 1.5; stroke-linecap: square"/>
    </g>
    <g id="text_21">
     <!-- 0.4 V  E_a: 0.059 - 0.154 eV -->
     <g transform="translate(87.14375 68.829062) scale(0.1 -0.1)">
      <use xlink:href="#DejaVuSans-30"/>
      <use xlink:href="#DejaVuSans-2e" x="63.623047"/>
      <use xlink:href="#DejaVuSans-34" x="95.410156"/>
      <use xlink:href="#DejaVuSans-20" x="159.033203"/>
      <use xlink:href="#DejaVuSans-56" x="190.820312"/>
      <use xlink:href="#DejaVuSans-20" x="259.228516"/>
      <use xlink:href="#DejaVuSans-20" x="291.015625"/>
      <use xlink:href="#DejaVuSans-45" x="322.802734"/>
      <use xlink:href="#DejaVuSans-5f" x="385.986328"/>
      <use xlink:href="#DejaVuSans-61" x="435.986328"/>
      <use xlink:href="#DejaVuSans-3a" x="497.265625"/>
      <use xlink:href="#DejaVuSans-20" x="530.957031"/>
      <use xlink:href="#DejaVuSans-30" x="562.744141"/>
      <use xlink:href="#DejaVuSans-2e" x="626.367188"/>
      <use xlink:href="#DejaVuSans-30" x="658.154297"/>
      <use xlink:href="#DejaVuSans-35" x="721.777344"/>
      <use xlink:href="#DejaVuSans-39" x="785.400391"/>
      <use xlink:href="#DejaVuSans-20" x="849.023438"/>
      <use xlink:href="#DejaVuSans-2d" x="880.810547"/>
      <use xlink:href="#DejaVuSans-20" x="916.894531"/>
      <use xlink:href="#DejaVuSans-30" x="948.681641"/>
      <use xlink:href="#DejaVuSans-2e" x="1012.304688"/>
      <use xlink:href="#DejaVuSans-31" x="1044.091797"/>
      <use xlink:href="#DejaVuSans-35" x="1107.714844"/>
      <use xlink:href="#DejaVuSans-34" x="1171.337891"/>
      <use xlink:href="#DejaVuSans-20" x="1234.960938"/>
      <use xlink:href="#DejaVuSans-65" x="1266.748047"/>
      <use xlink:href="#DejaVuSans-56" x="1328.271484"/>
     </g>
    </g>
    <g id="line2d_52">
     <path d="M 59.14375 80.285312 
L 69.14375 80.285312 
L 79.14375 80.285312 
" style="fill: none; stroke: #00ffff; stroke-width: 1.5; stroke-linecap: square"/>
    </g>
    <g id="text_22">
     <!-- 5e-06 A E_a: 0.049 - 0.112 eV -->
     <g transform="translate(87.14375 83.785312) scale(0.1 -0.1)">
      <defs>
       <path id="DejaVuSans-41" d="M 2188 4044 
L 1331 1722 
L 3047 1722 
L 2188 4044 
z
M 1831 4666 
L 2547 4666 
L 4325 0 
L 3669 0 
L 3244 1197 
L 1141 1197 
L 716 0 
L 50 0 
L 1831 4666 
z
" transform="scale(0.015625)"/>
      </defs>
      <use xlink:href="#DejaVuSans-35"/>
      <use xlink:href="#DejaVuSans-65" x="63.623047"/>
      <use xlink:href="#DejaVuSans-2d" x="125.146484"/>
      <use xlink:href="#DejaVuSans-30" x="161.230469"/>
      <use xlink:href="#DejaVuSans-36" x="224.853516"/>
      <use xlink:href="#DejaVuSans-20" x="288.476562"/>
      <use xlink:href="#DejaVuSans-41" x="320.263672"/>
      <use xlink:href="#DejaVuSans-20" x="388.671875"/>
      <use xlink:href="#DejaVuSans-45" x="420.458984"/>
      <use xlink:href="#DejaVuSans-5f" x="483.642578"/>
      <use xlink:href="#DejaVuSans-61" x="533.642578"/>
      <use xlink:href="#DejaVuSans-3a" x="594.921875"/>
      <use xlink:href="#DejaVuSans-20" x="628.613281"/>
      <use xlink:href="#DejaVuSans-30" x="660.400391"/>
      <use xlink:href="#DejaVuSans-2e" x="724.023438"/>
      <use xlink:href="#DejaVuSans-30" x="755.810547"/>
      <use xlink:href="#DejaVuSans-34" x="819.433594"/>
      <use xlink:href="#DejaVuSans-39" x="883.056641"/>
      <use xlink:href="#DejaVuSans-20" x="946.679688"/>
      <use xlink:href="#DejaVuSans-2d" x="978.466797"/>
      <use xlink:href="#DejaVuSans-20" x="1014.550781"/>
      <use xlink:href="#DejaVuSans-30" x="1046.337891"/>
      <use xlink:href="#DejaVuSans-2e" x="1109.960938"/>
      <use xlink:href="#DejaVuSans-31" x="1141.748047"/>
      <use xlink:href="#DejaVuSans-31" x="1205.371094"/>
      <use xlink:href="#DejaVuSans-32" x="1268.994141"/>
      <use xlink:href="#DejaVuSans-20" x="1332.617188"/>
      <use xlink:href="#DejaVuSans-65" x="1364.404297"/>
      <use xlink:href="#DejaVuSans-56" x="1425.927734"/>
     </g>
    </g>
    <g id="line2d_53">
     <path d="M 59.14375 95.241562 
L 69.14375 95.241562 
L 79.14375 95.241562 
" style="fill: none; stroke: #ff00ff; stroke-width: 1.5; stroke-linecap: square"/>
    </g>
    <g id="text_23">
     <!-- 3e-05 A E_a: 0.023 - 0.127 eV -->
     <g transform="translate(87.14375 98.741562) scale(0.1 -0.1)">
      <use xlink:href="#DejaVuSans-33"/>
      <use xlink:href="#DejaVuSans-65" x="63.623047"/>
      <use xlink:href="#DejaVuSans-2d" x="125.146484"/>
      <use xlink:href="#DejaVuSans-30" x="161.230469"/>
      <use xlink:href="#DejaVuSans-35" x="224.853516"/>
      <use xlink:href="#DejaVuSans-20" x="288.476562"/>
      <use xlink:href="#DejaVuSans-41" x="320.263672"/>
      <use xlink:href="#DejaVuSans-20" x="388.671875"/>
      <use xlink:href="#DejaVuSans-45" x="420.458984"/>
      <use xlink:href="#DejaVuSans-5f" x="483.642578"/>
      <use xlink:href="#DejaVuSans-61" x="533.642578"/>
      <use xlink:href="#DejaVuSans-3a" x="594.921875"/>
      <use xlink:href="#DejaVuSans-20" x="628.613281"/>
      <use xlink:href="#DejaVuSans-30" x="660.400391"/>
      <use xlink:href="#DejaVuSans-2e" x="724.023438"/>
      <use xlink:href="#DejaVuSans-30" x="755.810547"/>
      <use xlink:href="#DejaVuSans-32" x="819.433594"/>
      <use xlink:href="#DejaVuSans-33" x="883.056641"/>
      <use xlink:href="#DejaVuSans-20" x="946.679688"/>
      <use xlink:href="#DejaVuSans-2d" x="978.466797"/>
      <use xlink:href="#DejaVuSans-20" x="1014.550781"/>
      <use xlink:href="#DejaVuSans-30" x="1046.337891"/>
      <use xlink:href="#DejaVuSans-2e" x="1109.960938"/>
      <use xlink:href="#DejaVuSans-31" x="1141.748047"/>
      <use xlink:href="#DejaVuSans-32" x="1205.371094"/>
      <use xlink:href="#DejaVuSans-37" x="1268.994141"/>
      <use xlink:href="#DejaVuSans-20" x="1332.617188"/>
      <use xlink:href="#DejaVuSans-65" x="1364.404297"/>
      <use xlink:href="#DejaVuSans-56" x="1425.927734"/>
     </g>
    </g>
    <g id="line2d_54">
     <path d="M 59.14375 110.197812 
L 69.14375 110.197812 
L 79.14375 110.197812 
" style="fill: none; stroke: #ffff00; stroke-width: 1.5; stroke-linecap: square"/>
    </g>
    <g id="text_24">
     <!-- 0.0001 A E_a: 0.016 - 0.109 eV -->
     <g transform="translate(87.14375 113.697812) scale(0.1 -0.1)">
      <use xlink:href="#DejaVuSans-30"/>
      <use xlink:href="#DejaVuSans-2e" x="63.623047"/>
      <use xlink:href="#DejaVuSans-30" x="95.410156"/>
      <use xlink:href="#DejaVuSans-30" x="159.033203"/>
      <use xlink:href="#DejaVuSans-30" x="222.65625"/>
      <use xlink:href="#DejaVuSans-31" x="286.279297"/>
      <use xlink:href="#DejaVuSans-20" x="349.902344"/>
      <use xlink:href="#DejaVuSans-41" x="381.689453"/>
      <use xlink:href="#DejaVuSans-20" x="450.097656"/>
      <use xlink:href="#DejaVuSans-45" x="481.884766"/>
      <use xlink:href="#DejaVuSans-5f" x="545.068359"/>
      <use xlink:href="#DejaVuSans-61" x="595.068359"/>
      <use xlink:href="#DejaVuSans-3a" x="656.347656"/>
      <use xlink:href="#DejaVuSans-20" x="690.039062"/>
      <use xlink:href="#DejaVuSans-30" x="721.826172"/>
      <use xlink:href="#DejaVuSans-2e" x="785.449219"/>
      <use xlink:href="#DejaVuSans-30" x="817.236328"/>
      <use xlink:href="#DejaVuSans-31" x="880.859375"/>
      <use xlink:href="#DejaVuSans-36" x="944.482422"/>
      <use xlink:href="#DejaVuSans-20" x="1008.105469"/>
      <use xlink:href="#DejaVuSans-2d" x="1039.892578"/>
      <use xlink:href="#DejaVuSans-20" x="1075.976562"/>
      <use xlink:href="#DejaVuSans-30" x="1107.763672"/>
      <use xlink:href="#DejaVuSans-2e" x="1171.386719"/>
      <use xlink:href="#DejaVuSans-31" x="1203.173828"/>
      <use xlink:href="#DejaVuSans-30" x="1266.796875"/>
      <use xlink:href="#DejaVuSans-39" x="1330.419922"/>
      <use xlink:href="#DejaVuSans-20" x="1394.042969"/>
      <use xlink:href="#DejaVuSans-65" x="1425.830078"/>
      <use xlink:href="#DejaVuSans-56" x="1487.353516"/>
     </g>
    </g>
   </g>
  </g>
 </g>
 <defs>
  <clipPath id="p27410af6ae">
   <rect x="50.14375" y="22.318125" width="781.2" height="332.64"/>
  </clipPath>
 </defs>
</svg>
